<svg version="1.1" id="Layer_1" xmlns="http://www.w3.org/2000/svg" x="0px"
     y="0px"
     width="100%" viewBox="0 0 955 428" xml:space="preserve">

<path fill="#FEFEFE" opacity="1.000000" stroke="none"
      d="
M750.989929,423.476379 
	C721.401001,424.734833 693.492676,419.391602 666.565918,408.500580 
	C645.461731,399.964600 626.581482,387.933533 609.280090,373.152008 
	C586.133423,353.376556 568.783691,329.346130 556.092041,301.892059 
	C547.983521,284.351898 542.296875,265.935455 539.801636,246.745758 
	C538.441833,236.287552 538.084229,225.672241 537.750366,215.112747 
	C536.935425,189.341843 529.606812,165.764664 513.539917,145.495621 
	C497.229919,124.919868 476.101562,111.072845 450.255859,105.867767 
	C416.257935,99.020920 385.156738,106.060272 357.817932,127.957779 
	C335.729736,145.649704 322.057831,168.615341 317.762970,196.375732 
	C312.658356,229.370132 320.009735,259.534760 341.462982,285.899933 
	C359.254761,307.765228 382.092407,321.191650 409.572266,325.468201 
	C442.919739,330.657898 473.069763,322.304565 498.746613,299.737885 
	C502.927399,296.063477 506.943146,292.201263 511.532349,287.967163 
	C513.464905,294.349365 515.459595,300.600616 517.250549,306.909668 
	C524.670959,333.050293 531.954224,359.230225 539.509583,385.331573 
	C540.426025,388.497437 539.919495,389.917053 537.175354,391.671265 
	C513.189148,407.004425 487.013702,417.009186 459.057068,421.237335 
	C443.246521,423.628571 426.904175,423.951050 410.895325,423.200775 
	C392.742706,422.349976 374.946686,418.080017 357.761871,411.849640 
	C336.060516,403.981689 316.212799,392.791443 298.193115,378.359192 
	C279.365021,363.279358 263.741211,345.378479 251.003891,324.916473 
	C236.708588,301.951599 227.586456,276.979645 223.020981,250.435791 
	C219.672806,230.969467 219.030228,211.380447 221.446075,191.599731 
	C223.796936,172.351135 228.405029,153.793671 235.571915,135.892029 
	C243.829315,115.266441 255.410110,96.592819 269.800385,79.602371 
	C289.103638,56.811188 312.261536,39.120876 339.125061,26.227325 
	C357.782990,17.272175 377.331604,10.928790 397.953064,8.959853 
	C412.630371,7.558465 427.490936,6.491117 442.181183,7.175209 
	C465.326813,8.253052 487.503967,14.385722 508.844543,23.568573 
	C534.680542,34.685806 557.090942,50.660778 576.462891,70.886841 
	C589.251709,84.239449 599.867615,99.265617 608.700562,115.530251 
	C618.113464,132.862732 624.969360,151.224991 628.956055,170.464874 
	C631.381104,182.168442 632.747253,194.212875 633.253540,206.160767 
	C633.835815,219.902863 634.285095,233.539780 638.236633,246.832596 
	C642.787231,262.140411 650.137329,275.798187 660.549805,288.027893 
	C672.686279,302.282501 687.355225,312.774170 704.673767,319.453064 
	C721.291260,325.861633 738.467346,328.071533 756.366455,326.037476 
	C783.643738,322.937775 806.420959,311.277191 824.974365,291.401642 
	C841.148621,274.074677 850.904968,253.608459 853.812500,229.865616 
	C857.266235,201.662689 851.568359,175.681366 835.607178,152.187561 
	C817.734863,125.880829 792.811340,109.636078 761.544800,104.794800 
	C728.262146,99.641357 698.021973,107.805534 672.428589,130.463120 
	C667.410400,134.905701 663.027588,140.065948 657.643982,145.626266 
	C653.392700,130.778931 649.464905,117.204712 645.622192,103.606438 
	C640.210938,84.457649 634.953857,65.264503 629.394592,46.159077 
	C628.504028,43.098423 629.304016,41.598125 631.714417,40.063931 
	C657.256348,23.806696 684.699829,12.345016 714.924011,8.989866 
	C729.891235,7.328371 745.140198,6.328121 760.132629,7.213708 
	C782.181213,8.516094 803.541626,13.888409 824.027222,22.626154 
	C851.991638,34.553883 876.487793,51.454823 896.493774,74.190422 
	C906.598083,85.673454 915.347839,98.524223 923.482239,111.524818 
	C936.465454,132.275101 943.784729,155.385910 947.961243,179.388794 
	C949.569092,188.629013 949.864807,198.121658 950.401184,207.519669 
	C951.993164,235.408249 947.454895,262.373199 937.830994,288.546906 
	C930.511108,308.454834 920.191406,326.725800 907.234741,343.430786 
	C891.855957,363.258636 873.435120,379.788116 852.037354,393.039246 
	C830.049988,406.655579 806.408386,415.914001 780.986572,420.354492 
	C771.268555,422.051971 761.327698,422.473419 750.989929,423.476379 
z"/>
    <path fill="#FFFFFF" opacity="1.000000" stroke="none"
          d="
M185.182205,19.037951 
	C185.269379,20.694918 185.432739,22.351879 185.432892,24.008856 
	C185.444839,152.452454 185.443954,280.896057 185.444046,409.339661 
	C185.444046,410.817017 185.444046,412.294403 185.444046,414.431793 
	C154.769409,414.431793 124.361610,414.431793 93.465508,413.839661 
	C92.965591,410.915405 92.943863,408.583282 92.943817,406.251190 
	C92.942108,309.797089 92.961044,213.342972 92.854515,116.888992 
	C92.851227,113.912483 91.548416,110.937416 90.851456,107.961678 
	C90.610611,103.953903 88.099319,103.407944 84.663383,103.420486 
	C60.731941,103.507835 36.799969,103.447426 12.403563,102.931076 
	C12.115566,101.622307 12.134751,100.738350 12.491525,100.022690 
	C25.494295,73.940018 38.480179,47.848454 51.686188,21.868822 
	C52.426285,20.412863 55.014404,19.070362 56.746376,19.065372 
	C99.557991,18.942089 142.370148,19.006752 185.182205,19.037951 
z"/>
</svg>